<svg xmlns="http://www.w3.org/2000/svg" viewBox="0 0 1346.23 279.12"><defs><style>.cls-1{fill:#fff;}.cls-2{fill:#e50056;}</style></defs><g id="Camada_2" data-name="Camada 2"><g id="Layer_1" data-name="Layer 1"><path class="cls-1" d="M409.31,42.38a20.88,20.88,0,0,1,21,21v63a20.88,20.88,0,0,1-21,21h-84a20.86,20.86,0,0,1-21-21v-63a20.86,20.86,0,0,1,21-21Zm-13.94,77V70.45H339.22v48.89Z"/><path class="cls-1" d="M582.33,42.38v84a20.86,20.86,0,0,1-21,21h-84a20.86,20.86,0,0,1-21-21v-84h34.95v77h56.14v-77Z"/><path class="cls-1" d="M737.21,42.38V70.45H691.57v77h-35v-77H611.17V42.38Z"/><path class="cls-1" d="M867.65,42.38a20.86,20.86,0,0,1,21,21V91.46a20.38,20.38,0,0,1-6.11,14.8,20.13,20.13,0,0,1-14.9,6.2H797.56v35H762.61v-105Zm-13.94,42V70.45H797.56V84.39Z"/><path class="cls-1" d="M1041.44,119.34v28.07h-105a20.86,20.86,0,0,1-21-21v-84h35v77Z"/><path class="cls-1" d="M1172.64,42.38a20.34,20.34,0,0,1,14.8,6.11,20.14,20.14,0,0,1,6.21,14.89v84H1158.5V112.46h-56v35h-35v-84a20.86,20.86,0,0,1,21-21Zm-14.14,42V70.45h-56V84.39Z"/><path class="cls-1" d="M1346.23,42.38v84a20.86,20.86,0,0,1-21,21h-105v-7.06a20.34,20.34,0,0,1,6.11-14.8,20.1,20.1,0,0,1,14.9-6.21h63a6.93,6.93,0,0,0,5-2,6.47,6.47,0,0,0,2.1-4.87v-3.62H1241.2a20.88,20.88,0,0,1-21-21V42.38h35V81h49.08a7.17,7.17,0,0,0,7.06-7.06V42.38Z"/><path class="cls-2" d="M325.62,189.73V219.6h55.64v17.14H317.1a12.74,12.74,0,0,1-12.83-12.83V185.42a12.75,12.75,0,0,1,12.83-12.84h64.16v17.15Z"/><path class="cls-2" d="M461.76,172.58a12.75,12.75,0,0,1,12.83,12.84v38.49a12.74,12.74,0,0,1-12.83,12.83H410.43a12.75,12.75,0,0,1-12.84-12.83V185.42a12.77,12.77,0,0,1,12.84-12.84Zm-8.52,47V189.73h-34.3V219.6Z"/><path class="cls-2" d="M576.43,185.42v51.32H555V203.15l-21.34,33.59-21.35-33.59v33.59H490.8V185.42a12.31,12.31,0,0,1,3.79-9.1,12.44,12.44,0,0,1,9-3.74h9.45l20.54,32.32,20.53-32.32h9.45a12.44,12.44,0,0,1,9,3.74A12.31,12.31,0,0,1,576.43,185.42Z"/><path class="cls-2" d="M656.57,172.58a12.75,12.75,0,0,1,12.83,12.84v17.14a12.42,12.42,0,0,1-3.73,9,12.28,12.28,0,0,1-9.1,3.8H613.76v21.34H592.41V172.58Zm-8.51,25.67v-8.52h-34.3v8.52Z"/><path class="cls-2" d="M749.55,172.58a12.44,12.44,0,0,1,9,3.74,12.31,12.31,0,0,1,3.79,9.1v51.32H740.91V215.4H706.73v21.34H685.38V185.42a12.77,12.77,0,0,1,12.84-12.84Zm-8.64,25.67v-8.52H706.73v8.52Z"/><path class="cls-2" d="M856.05,172.58v51.33a12.74,12.74,0,0,1-12.83,12.83h-11L800.41,197v39.78H779.06V185.42a12.75,12.75,0,0,1,12.83-12.84h11l31.84,39.78V172.58Z"/><path class="cls-2" d="M948.91,172.58v51.33a12.74,12.74,0,0,1-12.83,12.83H871.92v-4.31a12.43,12.43,0,0,1,3.73-9,12.28,12.28,0,0,1,9.1-3.79h38.49a4.25,4.25,0,0,0,3-1.23,4,4,0,0,0,1.28-3v-2.22H884.75a12.74,12.74,0,0,1-12.83-12.83V172.58h21.34v23.57h30a4.39,4.39,0,0,0,4.32-4.32V172.58Z"/><path class="cls-2" d="M139.55,0,0,139.55,139.55,279.12,279.1,139.55ZM19.79,139.55,139.55,19.79,259.31,139.55,139.55,259.33Z"/><polygon class="cls-2" points="181.06 78 170.81 78 160.56 57.5 181.06 78"/><polygon class="cls-2" points="161.53 78 143.7 78 143.7 42.34 161.53 78"/><polygon class="cls-2" points="135.4 42.34 135.4 78 117.56 78 135.4 42.34"/><polygon class="cls-2" points="135.4 86.3 135.4 135.41 88.86 135.41 113.41 86.3 135.4 86.3"/><polygon class="cls-2" points="190.23 135.41 143.7 135.41 143.7 86.3 165.68 86.3 190.23 135.41"/><polygon class="cls-2" points="238.47 135.41 199.51 135.41 174.96 86.3 189.36 86.3 238.47 135.41"/><polygon class="cls-2" points="238.45 143.71 189.35 192.82 174.96 192.82 199.51 143.71 238.45 143.71"/><polygon class="cls-2" points="181.05 201.12 160.57 221.6 170.81 201.12 181.05 201.12"/><polygon class="cls-2" points="190.23 143.71 165.68 192.82 143.7 192.82 143.7 143.71 190.23 143.71"/><polygon class="cls-2" points="161.53 201.12 143.7 236.77 143.7 201.12 161.53 201.12"/><polygon class="cls-2" points="135.4 201.12 135.4 236.77 117.56 201.12 135.4 201.12"/><polygon class="cls-2" points="135.4 143.71 135.4 192.82 113.41 192.82 88.86 143.71 135.4 143.71"/><polygon class="cls-2" points="118.53 221.59 98.05 201.12 108.28 201.12 118.53 221.59"/><polygon class="cls-2" points="104.13 192.82 89.75 192.82 40.65 143.71 79.58 143.71 104.13 192.82"/><polygon class="cls-2" points="104.13 86.3 79.58 135.41 40.64 135.41 89.74 86.3 104.13 86.3"/><polygon class="cls-2" points="118.53 57.52 108.28 78 98.05 78 118.53 57.52"/></g></g></svg>