<svg xmlns="http://www.w3.org/2000/svg" viewBox="0 0 279.1 279.12"><defs><style>.cls-1{fill:#e50056;}</style></defs><g id="Camada_2" data-name="Camada 2"><g id="Layer_1" data-name="Layer 1"><path class="cls-1" d="M139.55,0,0,139.55,139.55,279.12,279.1,139.55ZM19.79,139.55,139.55,19.79,259.31,139.55,139.55,259.33Z"/><polygon class="cls-1" points="181.06 78 170.81 78 160.56 57.5 181.06 78"/><polygon class="cls-1" points="161.53 78 143.7 78 143.7 42.34 161.53 78"/><polygon class="cls-1" points="135.4 42.34 135.4 78 117.56 78 135.4 42.34"/><polygon class="cls-1" points="135.4 86.3 135.4 135.41 88.86 135.41 113.41 86.3 135.4 86.3"/><polygon class="cls-1" points="190.23 135.41 143.7 135.41 143.7 86.3 165.68 86.3 190.23 135.41"/><polygon class="cls-1" points="238.47 135.41 199.51 135.41 174.96 86.3 189.36 86.3 238.47 135.41"/><polygon class="cls-1" points="238.45 143.71 189.35 192.82 174.96 192.82 199.51 143.71 238.45 143.71"/><polygon class="cls-1" points="181.05 201.12 160.57 221.6 170.81 201.12 181.05 201.12"/><polygon class="cls-1" points="190.23 143.71 165.68 192.82 143.7 192.82 143.7 143.71 190.23 143.71"/><polygon class="cls-1" points="161.53 201.12 143.7 236.77 143.7 201.12 161.53 201.12"/><polygon class="cls-1" points="135.4 201.12 135.4 236.77 117.56 201.12 135.4 201.12"/><polygon class="cls-1" points="135.4 143.71 135.4 192.82 113.41 192.82 88.86 143.71 135.4 143.71"/><polygon class="cls-1" points="118.53 221.59 98.05 201.12 108.28 201.12 118.53 221.59"/><polygon class="cls-1" points="104.13 192.82 89.75 192.82 40.65 143.71 79.58 143.71 104.13 192.82"/><polygon class="cls-1" points="104.13 86.3 79.58 135.41 40.64 135.41 89.74 86.3 104.13 86.3"/><polygon class="cls-1" points="118.53 57.52 108.28 78 98.05 78 118.53 57.52"/></g></g></svg>